<svg width="27" height="26" viewBox="0 0 27 26" fill="none" xmlns="http://www.w3.org/2000/svg">
<path d="M13.5 2.34102C17.107 2.34102 17.5342 2.35625 18.9527 2.41719C20.2711 2.47305 20.983 2.68633 21.4576 2.86406C22.0852 3.09766 22.5387 3.38203 23.008 3.83398C23.4826 4.29102 23.7727 4.72266 24.0152 5.32695C24.1998 5.78398 24.4213 6.47461 24.4793 7.73906C24.5426 9.11016 24.5584 9.52149 24.5584 12.9898C24.5584 16.4633 24.5426 16.8746 24.4793 18.2406C24.4213 19.5102 24.1998 20.1957 24.0152 20.6527C23.7727 21.257 23.4773 21.6938 23.008 22.1457C22.5334 22.6027 22.0852 22.882 21.4576 23.1156C20.983 23.2934 20.2658 23.5066 18.9527 23.5625C17.5289 23.6234 17.1018 23.6387 13.5 23.6387C9.89297 23.6387 9.46582 23.6234 8.04727 23.5625C6.72891 23.5066 6.01699 23.2934 5.54238 23.1156C4.91484 22.882 4.46133 22.5977 3.99199 22.1457C3.51738 21.6887 3.22734 21.257 2.98477 20.6527C2.8002 20.1957 2.57871 19.5051 2.5207 18.2406C2.45742 16.8695 2.4416 16.4582 2.4416 12.9898C2.4416 9.51641 2.45742 9.10508 2.5207 7.73906C2.57871 6.46953 2.8002 5.78398 2.98477 5.32695C3.22734 4.72266 3.52266 4.28594 3.99199 3.83398C4.4666 3.37695 4.91484 3.09766 5.54238 2.86406C6.01699 2.68633 6.73418 2.47305 8.04727 2.41719C9.46582 2.35625 9.89297 2.34102 13.5 2.34102ZM13.5 0C9.83496 0 9.37617 0.0152344 7.93652 0.0761719C6.50215 0.137109 5.51602 0.360547 4.66172 0.680469C3.77051 1.01562 3.01641 1.45742 2.26758 2.18359C1.51348 2.90469 1.05469 3.63086 0.706641 4.48398C0.374414 5.31172 0.142383 6.25625 0.0791016 7.6375C0.0158203 9.02891 0 9.4707 0 13C0 16.5293 0.0158203 16.9711 0.0791016 18.3574C0.142383 19.7387 0.374414 20.6883 0.706641 21.5109C1.05469 22.3691 1.51348 23.0953 2.26758 23.8164C3.01641 24.5375 3.77051 24.9844 4.65645 25.3145C5.51602 25.6344 6.49688 25.8578 7.93125 25.9188C9.3709 25.9797 9.82969 25.9949 13.4947 25.9949C17.1598 25.9949 17.6186 25.9797 19.0582 25.9188C20.4926 25.8578 21.4787 25.6344 22.333 25.3145C23.2189 24.9844 23.973 24.5375 24.7219 23.8164C25.4707 23.0953 25.9348 22.3691 26.2775 21.516C26.6098 20.6883 26.8418 19.7438 26.9051 18.3625C26.9684 16.9762 26.9842 16.5344 26.9842 13.0051C26.9842 9.47578 26.9684 9.03399 26.9051 7.64766C26.8418 6.26641 26.6098 5.3168 26.2775 4.49414C25.9453 3.63086 25.4865 2.90469 24.7324 2.18359C23.9836 1.4625 23.2295 1.01562 22.3436 0.685547C21.484 0.365625 20.5031 0.142188 19.0688 0.08125C17.6238 0.0152344 17.165 0 13.5 0Z" fill="white"/>
<path d="M13.5 6.32227C9.67148 6.32227 6.56543 9.31328 6.56543 13C6.56543 16.6867 9.67148 19.6777 13.5 19.6777C17.3285 19.6777 20.4346 16.6867 20.4346 13C20.4346 9.31328 17.3285 6.32227 13.5 6.32227ZM13.5 17.3316C11.0162 17.3316 9.00176 15.3918 9.00176 13C9.00176 10.6082 11.0162 8.66836 13.5 8.66836C15.9838 8.66836 17.9982 10.6082 17.9982 13C17.9982 15.3918 15.9838 17.3316 13.5 17.3316Z" fill="white"/>
<path d="M22.3277 6.05801C22.3277 6.92129 21.6 7.617 20.7088 7.617C19.8123 7.617 19.0898 6.91621 19.0898 6.05801C19.0898 5.19473 19.8176 4.49902 20.7088 4.49902C21.6 4.49902 22.3277 5.19981 22.3277 6.05801Z" fill="white"/>
</svg>
